<svg width="32" height="33" viewBox="0 0 32 33" fill="none" xmlns="http://www.w3.org/2000/svg">
<g clip-path="url(#clip0_2281_32847)">
<path d="M30 28.7051H2V30.7051H30V28.7051Z" fill="white"/>
<path d="M24.5 11.7051H8C7.46973 11.7056 6.96133 11.9165 6.58637 12.2914C6.21141 12.6664 6.00053 13.1748 6 13.7051V21.7051C6.00156 23.0307 6.52885 24.3015 7.46619 25.2389C8.40353 26.1762 9.6744 26.7035 11 26.7051H19C20.3256 26.7035 21.5965 26.1762 22.5338 25.2389C23.4712 24.3015 23.9984 23.0307 24 21.7051V20.7051H24.5C25.6935 20.7051 26.8381 20.231 27.682 19.3871C28.5259 18.5431 29 17.3986 29 16.2051C29 15.0116 28.5259 13.867 27.682 13.0231C26.8381 12.1792 25.6935 11.7051 24.5 11.7051ZM22 21.7051C21.9991 22.5005 21.6828 23.263 21.1204 23.8254C20.5579 24.3879 19.7954 24.7042 19 24.7051H11C10.2046 24.7042 9.44206 24.3879 8.87964 23.8254C8.31722 23.263 8.00087 22.5005 8 21.7051V13.7051H22V21.7051ZM24.5 18.7051H24V13.7051H24.5C25.163 13.7051 25.7989 13.9685 26.2678 14.4373C26.7366 14.9062 27 15.542 27 16.2051C27 16.8681 26.7366 17.504 26.2678 17.9728C25.7989 18.4417 25.163 18.7051 24.5 18.7051Z" fill="white"/>
<path d="M19 9.70508H17V9.55908C17.0013 9.18742 16.8985 8.82283 16.703 8.50669C16.5076 8.19054 16.2275 7.93549 15.8945 7.77048L13.2109 6.42868C12.545 6.0984 11.9849 5.58819 11.5942 4.95586C11.2034 4.32354 10.9976 3.5944 11 2.85108V1.70508H13V2.85108C12.9988 3.22271 13.1017 3.58726 13.2971 3.90338C13.4925 4.21951 13.7726 4.47458 14.1055 4.63968L16.7891 5.98148C17.455 6.31179 18.0151 6.82202 18.4058 7.45433C18.7966 8.08664 19.0024 8.81577 19 9.55908V9.70508Z" fill="white"/>
</g>
<defs>
<clipPath id="clip0_2281_32847">
<rect width="32" height="32" fill="white" transform="translate(0 0.705078)"/>
</clipPath>
</defs>
</svg>
