<svg width="12" height="12" viewBox="0 0 12 12" fill="#2A1CF7" xmlns="http://www.w3.org/2000/svg">
<g clip-path="url(#clip0_2291_32886)">
<path d="M9.75 10.5H2.25C2.05117 10.4997 1.86056 10.4206 1.71997 10.28C1.57937 10.1394 1.50027 9.94883 1.5 9.75V2.25C1.50027 2.05117 1.57937 1.86056 1.71997 1.71997C1.86056 1.57937 2.05117 1.50027 2.25 1.5H6V2.25H2.25V9.75H9.75V6H10.5V9.75C10.4997 9.94883 10.4206 10.1394 10.28 10.28C10.1394 10.4206 9.94883 10.4997 9.75 10.5Z"/>
<path d="M7.5 0.75V1.5H9.96975L6.75 4.71975L7.28025 5.25L10.5 2.03025V4.5H11.25V0.75H7.5Z" />
</g>
</svg>
