<svg width="16" height="16" viewBox="0 0 16 16" fill="none" xmlns="http://www.w3.org/2000/svg">
<circle cx="8" cy="8" r="8" fill="#CE5347"/>
<path d="M4.16784 4.16784C4.22091 4.11464 4.28396 4.07243 4.35336 4.04363C4.42277 4.01482 4.49718 4 4.57233 4C4.64747 4 4.72188 4.01482 4.79129 4.04363C4.8607 4.07243 4.92374 4.11464 4.97681 4.16784L8.00015 7.19233L11.0235 4.16784C11.0766 4.11472 11.1397 4.07259 11.2091 4.04384C11.2785 4.0151 11.3529 4.0003 11.428 4.0003C11.5031 4.0003 11.5775 4.0151 11.6469 4.04384C11.7163 4.07259 11.7793 4.11472 11.8325 4.16784C11.8856 4.22096 11.9277 4.28402 11.9565 4.35342C11.9852 4.42282 12 4.49721 12 4.57233C12 4.64744 11.9852 4.72183 11.9565 4.79123C11.9277 4.86063 11.8856 4.92369 11.8325 4.97681L8.80797 8.00015L11.8325 11.0235C11.8856 11.0766 11.9277 11.1397 11.9565 11.2091C11.9852 11.2785 12 11.3529 12 11.428C12 11.5031 11.9852 11.5775 11.9565 11.6469C11.9277 11.7163 11.8856 11.7793 11.8325 11.8325C11.7793 11.8856 11.7163 11.9277 11.6469 11.9565C11.5775 11.9852 11.5031 12 11.428 12C11.3529 12 11.2785 11.9852 11.2091 11.9565C11.1397 11.9277 11.0766 11.8856 11.0235 11.8325L8.00015 8.80797L4.97681 11.8325C4.92369 11.8856 4.86063 11.9277 4.79123 11.9565C4.72183 11.9852 4.64744 12 4.57233 12C4.49721 12 4.42282 11.9852 4.35342 11.9565C4.28402 11.9277 4.22096 11.8856 4.16784 11.8325C4.11472 11.7793 4.07259 11.7163 4.04384 11.6469C4.0151 11.5775 4.0003 11.5031 4.0003 11.428C4.0003 11.3529 4.0151 11.2785 4.04384 11.2091C4.07259 11.1397 4.11472 11.0766 4.16784 11.0235L7.19233 8.00015L4.16784 4.97681C4.11464 4.92374 4.07243 4.8607 4.04363 4.79129C4.01482 4.72188 4 4.64747 4 4.57233C4 4.49718 4.01482 4.42277 4.04363 4.35336C4.07243 4.28396 4.11464 4.22091 4.16784 4.16784Z" fill="white"/>
</svg>
