<svg xmlns="http://www.w3.org/2000/svg" width="22" height="22" fill="none" viewBox="0 0 22 22"><g clip-path="url(#a)"><circle cx="11" cy="11" r="10.5" fill="#fff" stroke="#2A1CF7"/><path fill="#2A1CF7" fill-rule="evenodd" d="m11.95 9.8-.3 1.6 2.85.4-.2.75-2.8-.4c-.2.65-.3 1.35-.55 1.95-.25.7-.5 1.4-.8 2.05-.4.85-1.1 1.45-2.05 1.6-.55.1-1.15.05-1.6-.3-.15-.1-.3-.3-.3-.45 0-.2.1-.45.25-.55.1-.05.35 0 .5.05.15.15.3.35.4.55.3.4.7.45 1.1.15.45-.4.7-.95.85-1.5.3-1.2.6-2.35.85-3.55v-.2l-2.65-.4.1-.75 2.75.4.35-1.55-2.85-.45.1-.8 2.95.4c.1-.3.15-.55.25-.8.25-.9.5-1.8 1.1-2.6.6-.8 1.3-1.3 2.35-1.25.45 0 .9.15 1.2.5.05.05.15.15.15.25 0 .2 0 .45-.15.6-.2.15-.45.1-.65-.1-.15-.15-.25-.3-.4-.45-.3-.4-.75-.45-1.1-.1-.25.25-.5.6-.65.95-.35 1.05-.6 2.15-.95 3.25l2.75.4-.2.75-2.65-.4Z" clip-rule="evenodd"/></g><defs><clipPath id="a"><path fill="#fff" d="M0 0h22v22H0z"/></clipPath></defs></svg>