<svg xmlns="http://www.w3.org/2000/svg" width="20" height="20" fill="none" viewBox="0 0 20 20"><path stroke="currentColor" stroke-linecap="round" stroke-linejoin="round" d="M10.205 2A8.2 8.2 0 0 0 7.61 17.982c.412.076.56-.176.56-.382v-1.392c-2.288.496-2.76-1.099-2.76-1.099a2.174 2.174 0 0 0-.928-1.216c-.743-.508.058-.5.058-.5a1.724 1.724 0 0 1 1.255.847c.732 1.255 1.907.892 2.387.682.038-.416.223-.806.523-1.098-1.823-.206-3.738-.908-3.738-4.05a3.166 3.166 0 0 1 .847-2.201 2.93 2.93 0 0 1 .08-2.17s.686-.222 2.254.838a7.804 7.804 0 0 1 4.104 0c1.568-1.06 2.254-.839 2.254-.839.302.687.33 1.463.08 2.17.555.598.857 1.386.843 2.201 0 3.15-1.907 3.841-3.742 4.047a1.953 1.953 0 0 1 .557 1.526v2.25c0 .271.15.473.565.382A8.2 8.2 0 0 0 10.205 2Z"/></svg>