<svg width="12" height="13" viewBox="0 0 12 13" xmlns="http://www.w3.org/2000/svg" fill="#33CC9D" stroke="#33CC9D">
  <path d="M6.65854 3.64175V10.8101L9.87224 7.67833C10.1291 7.42805 10.5505 7.42805 10.8074 7.67833C11.0642 7.92861 11.0642 8.33291 10.8074 8.58319L6.46757 12.8123C6.34453 12.9325 6.17749 13 6.00329 13C5.8291 13 5.66206 12.9325 5.53902 12.8123L1.19262 8.58961C0.935792 8.33933 0.935792 7.93503 1.19262 7.68475C1.44946 7.43447 1.86434 7.43447 2.12117 7.68475L5.34146 10.8101V3.64175C5.34146 3.28879 5.6378 3 6 3C6.3622 3 6.65854 3.28879 6.65854 3.64175Z" stroke="none"/>
  <line x1="0.5" y1="0.5" x2="11.5" y2="0.5" stroke-linecap="round"/>
</svg>
