<svg xmlns="http://www.w3.org/2000/svg" width="16" height="16" fill="none" viewBox="0 0 16 16"><path fill="currentColor" d="M7.333 11.334h1.333v-4H7.333v4ZM8 6a.646.646 0 0 0 .475-.192.642.642 0 0 0 .191-.474.648.648 0 0 0-.192-.475A.643.643 0 0 0 8 4.667a.643.643 0 0 0-.475.192.648.648 0 0 0-.192.474c0 .189.064.347.192.476A.64.64 0 0 0 8 6Zm0 8.667a6.488 6.488 0 0 1-2.6-.525 6.742 6.742 0 0 1-2.117-1.425A6.717 6.717 0 0 1 1.858 10.6 6.507 6.507 0 0 1 1.333 8c0-.922.175-1.788.525-2.6a6.748 6.748 0 0 1 1.425-2.117c.6-.6 1.305-1.074 2.117-1.424A6.494 6.494 0 0 1 8 1.333c.921 0 1.788.176 2.6.526.812.35 1.517.825 2.116 1.425.6.6 1.075 1.305 1.426 2.116.35.812.526 1.678.524 2.6a6.537 6.537 0 0 1-.525 2.6 6.688 6.688 0 0 1-1.425 2.117c-.6.6-1.306 1.074-2.116 1.425a6.46 6.46 0 0 1-2.6.525Z"/></svg>