<svg xmlns="http://www.w3.org/2000/svg" width="20" height="20" fill="none" viewBox="0 0 20 20"><path fill="currentColor" d="M15 1.875H5a1.25 1.25 0 0 0-1.25 1.25v13.75A1.25 1.25 0 0 0 5 18.125h10a1.25 1.25 0 0 0 1.25-1.25V3.125A1.25 1.25 0 0 0 15 1.875Zm0 1.25v3.75H5v-3.75h10Zm-10 8.75v-3.75h10v3.75H5Zm0 5v-3.75h10v3.75H5Z"/><path fill="#000" d="M6.875 5.625a.625.625 0 1 0 0-1.25.625.625 0 0 0 0 1.25ZM6.875 10.625a.625.625 0 1 0 0-1.25.625.625 0 0 0 0 1.25ZM6.875 15.625a.625.625 0 1 0 0-1.25.625.625 0 0 0 0 1.25Z"/></svg>