<svg width="32" height="32" viewBox="0 0 32 32" fill="none" xmlns="http://www.w3.org/2000/svg">
  <g clip-path="url(#clip0_1_3)">
    <path
      d="M16.0004 25.5C14.6639 25.4991 13.3426 25.2167 12.1226 24.6711C11.055 24.1938 10.0859 23.5244 9.26287 22.6976L10.0087 22.0299C10.8931 22.9085 11.9614 23.5834 13.1392 24.0043C14.4743 24.4814 15.9076 24.6169 17.3085 24.3986C18.7094 24.1803 20.0335 23.615 21.1601 22.7542C22.2867 21.8934 23.1801 20.7645 23.759 19.4702C24.3378 18.1759 24.5837 16.7574 24.4742 15.3438C24.3648 13.9302 23.9035 12.5664 23.1323 11.3767C22.3611 10.1869 21.3046 9.20899 20.0588 8.5319C18.9599 7.93458 17.7446 7.58813 16.5 7.51474V6.51315C18.8374 6.63626 21.0541 7.6191 22.7175 9.28249C24.4991 11.0641 25.5 13.4804 25.5 16C25.5 18.5196 24.4991 20.9359 22.7175 22.7175C20.936 24.499 18.5198 25.4999 16.0004 25.5Z"
      stroke="url(#paint0_linear_1_3)" />
  </g>
  <defs>
    <linearGradient id="paint0_linear_1_3" x1="24.5" y1="21.5" x2="14" y2="14.5"
      gradientUnits="userSpaceOnUse">
      <stop offset="0.359375" stop-color="#2A1CF7" />
      <stop offset="1" stop-color="#2A1CF7" stop-opacity="0" />
    </linearGradient>
    <clipPath id="clip0_1_3">
      <rect width="32" height="32" fill="white" />
    </clipPath>
  </defs>
</svg>
  