<svg width="32" height="32" viewBox="0 0 194 194" fill="none" xmlns="http://www.w3.org/2000/svg">
<path d="M188.018 65.6286C195.701 87.9569 194.894 112.245 185.79 134.035C165.315 182.996 108.844 206.17 59.9027 185.686C36.2004 175.771 17.761 157.209 8.00347 133.421C-1.75404 109.632 -1.67721 83.4605 8.27238 59.7487C28.7478 10.7879 85.2185 -12.3858 134.16 8.09779L129.704 18.7431C86.6398 0.719083 36.9303 21.1258 18.9135 64.2067C10.1932 85.0746 10.1163 108.095 18.683 129.039C27.288 149.984 43.4993 166.317 64.3589 175.041C107.423 193.065 157.132 172.658 175.149 129.577C183.178 110.4 183.869 88.9945 177.108 69.3564L188.018 65.5902V65.6286Z" fill="#2A1CF7"/>
<path d="M149.367 143.389C143.166 150.492 135.479 156.281 126.65 160.349C110.177 167.951 91.7475 168.697 74.7034 162.431C57.6593 156.165 44.1301 143.652 36.5227 127.185C28.9153 110.718 28.1669 92.2945 34.4259 75.2955L45.2408 79.2595C40.0294 93.4001 40.6652 108.683 46.9694 122.348C53.2736 136.012 64.5586 146.416 78.6674 151.621C92.7762 156.825 108.103 156.199 121.772 149.899C135.44 143.599 145.846 132.319 151.051 118.216C156.256 104.114 155.627 88.7925 149.323 75.1282C143.018 61.4638 131.733 51.0601 117.625 45.8553C104.612 41.0767 90.3818 41.2329 77.4754 46.3015L73.2315 35.5727C88.7436 29.4401 105.905 29.252 121.589 35.045C138.595 41.304 152.162 53.8241 159.769 70.2912C167.377 86.7582 168.125 105.181 161.859 122.218C158.95 130.132 154.694 137.264 149.316 143.458L149.367 143.389Z" fill="#2A1CF7"/>
<path fill-rule="evenodd" clip-rule="evenodd" d="M97.7196 69.9407C82.0851 69.9407 69.4109 82.615 69.4109 98.2495C69.4109 113.884 82.0851 126.558 97.7196 126.558C113.354 126.558 126.028 113.884 126.028 98.2495C126.028 82.615 113.354 69.9407 97.7196 69.9407ZM58.0873 98.2495C58.0873 76.3612 75.8313 58.6172 97.7196 58.6172C119.608 58.6172 137.352 76.3612 137.352 98.2495C137.352 120.138 119.608 137.882 97.7196 137.882C75.8313 137.882 58.0873 120.138 58.0873 98.2495Z" fill="#2A1CF7"/>
</svg>
