<svg xmlns="http://www.w3.org/2000/svg" width="20" height="20" fill="none" viewBox="0 0 20 20"><path stroke="currentColor" stroke-linecap="round" stroke-linejoin="round" d="M7.846 11.539h-5.23a.615.615 0 0 0-.616.615v5.23a.616.616 0 0 0 .615.616h5.231a.615.615 0 0 0 .616-.615v-5.231a.615.615 0 0 0-.616-.615Zm9.539 0h-5.231a.615.615 0 0 0-.615.615v5.23a.616.616 0 0 0 .615.616h5.23a.616.616 0 0 0 .616-.615v-5.231a.615.615 0 0 0-.615-.615ZM12.62 2h-5.23a.615.615 0 0 0-.616.615v5.231a.615.615 0 0 0 .616.616h5.23a.616.616 0 0 0 .616-.616v-5.23A.615.615 0 0 0 12.62 2Z"/></svg>