<svg width="12" height="13" viewBox="0 0 12 13" xmlns="http://www.w3.org/2000/svg" stroke="#330867" fill="#330867">
<path d="M6.65854 9.35825V2.18995L9.87224 5.32167C10.1291 5.57195 10.5505 5.57195 10.8074 5.32167C11.0642 5.07139 11.0642 4.66709 10.8074 4.41681L6.46757 0.187702C6.34453 0.0675328 6.17749 0 6.00329 0C5.8291 0 5.66206 0.0675328 5.53902 0.187702L1.19262 4.41039C0.935792 4.66067 0.935792 5.06497 1.19262 5.31525C1.44946 5.56553 1.86434 5.56553 2.12117 5.31525L5.34146 2.18995V9.35825C5.34146 9.71121 5.6378 10 6 10C6.3622 10 6.65854 9.71121 6.65854 9.35825Z" stroke="none"/>
<line x1="0.5" y1="-0.5" x2="11.5" y2="-0.5" transform="matrix(1 0 0 -1 0 12)" stroke-linecap="round"/>
</svg>
