<svg xmlns="http://www.w3.org/2000/svg" width="20" height="20" fill="none" viewBox="0 0 20 20"><path fill="currentColor" fill-rule="evenodd" d="M7.791 15.43 8.113 18h3.315l.322-2.588c.303-.097.595-.229.876-.395.28-.167.559-.366.835-.598l2.383 1.025 1.658-2.888-2.083-1.563a5.12 5.12 0 0 0 .096-.993c0-.15-.003-.301-.01-.454a2.343 2.343 0 0 0-.081-.505l2.117-1.597-1.657-2.855-2.423.992A6.201 6.201 0 0 0 12.653 5a4.989 4.989 0 0 0-.903-.412L11.428 2H8.112l-.338 2.572a4.987 4.987 0 0 0-.9.412c-.31.178-.597.377-.862.598L3.658 4.59 2 7.444 4.049 8.99a20.03 20.03 0 0 0-.065.557 4.709 4.709 0 0 0 0 .967c.017.17.039.337.065.498L2 12.556l1.658 2.888 2.37-1.008c.233.21.514.407.843.59.33.183.636.317.92.403Zm-3.755-1.112 2.168-.923.421.382c.173.157.396.315.678.472.288.16.536.266.746.33l.552.167.296 2.365h1.746l.295-2.373.542-.173a3.35 3.35 0 0 0 .692-.313c.235-.139.474-.31.718-.514l.42-.352 2.158.929.872-1.52-1.897-1.423.102-.543a4.26 4.26 0 0 0 .065-.458v-.003c.01-.133.016-.255.016-.368 0-.138-.003-.278-.008-.42a1.474 1.474 0 0 0-.053-.312l-.153-.577 1.965-1.482-.873-1.504-2.202.902-.411-.344a5.327 5.327 0 0 0-.692-.499 4.109 4.109 0 0 0-.742-.336l-.52-.182-.294-2.357H8.892l-.309 2.35-.527.176a4.103 4.103 0 0 0-.74.34 5.185 5.185 0 0 0-.736.51l-.415.346-2.132-.898-.869 1.496 1.833 1.382-.067.512c-.025.2-.046.377-.062.532-.014.138-.02.265-.02.382v.003c0 .127.006.262.02.404.016.154.035.302.058.445l.086.529-1.85 1.395.874 1.525Zm7.915-2.114c-.6.601-1.353.907-2.204.907a3.03 3.03 0 0 1-2.209-.908A3.037 3.037 0 0 1 6.636 10c0-.85.304-1.602.902-2.203a3.03 3.03 0 0 1 2.209-.908c.85 0 1.604.306 2.204.906.6.601.907 1.354.907 2.205s-.306 1.604-.907 2.204Zm-.628-.628c-.431.43-.957.646-1.576.646-.624 0-1.15-.215-1.579-.646A2.149 2.149 0 0 1 7.524 10c0-.62.215-1.145.644-1.576.429-.43.955-.646 1.579-.646.62 0 1.145.215 1.576.646.43.43.646.956.646 1.576 0 .62-.215 1.145-.646 1.576Z" clip-rule="evenodd"/></svg>