<svg width="32" height="33" viewBox="0 0 32 33" fill="none" xmlns="http://www.w3.org/2000/svg">
<g clip-path="url(#clip0_2281_32838)">
<path d="M27.3813 11.5336C28.2693 12.4203 27.7013 13.9123 26.4987 14.0296L26.3453 14.0376L5.33333 14.0376C4.9935 14.0372 4.66663 13.9071 4.41951 13.6738C4.1724 13.4405 4.02369 13.1217 4.00377 12.7824C3.98386 12.4432 4.09423 12.1091 4.31235 11.8485C4.53047 11.5879 4.83987 11.4204 5.17733 11.3803L5.33333 11.3709L23.448 11.3709L20.3907 8.31361C20.1515 8.07366 20.0127 7.75169 20.0024 7.41309C19.992 7.0745 20.111 6.74466 20.335 6.49057C20.559 6.23648 20.8714 6.0772 21.2086 6.04507C21.5459 6.01295 21.8827 6.11039 22.1507 6.31761L22.276 6.42827L27.3827 11.5349L27.3813 11.5336ZM28 20.7043C28 21.0309 27.8801 21.3461 27.663 21.5901C27.446 21.8341 27.147 21.9901 26.8227 22.0283L26.6667 22.0376L8.552 22.0376L11.6093 25.0949C11.8485 25.3349 11.9873 25.6569 11.9976 25.9955C12.008 26.334 11.889 26.6639 11.665 26.918C11.441 27.1721 11.1286 27.3313 10.7914 27.3635C10.4541 27.3956 10.1173 27.2982 9.84933 27.0909L9.724 26.9803L4.61733 21.8736C3.73067 20.9883 4.29867 19.4963 5.50133 19.3789L5.65467 19.3709L26.6667 19.3709C27.0203 19.3709 27.3594 19.5114 27.6095 19.7615C27.8595 20.0115 28 20.3507 28 20.7043Z" fill="white"/>
</g>
<defs>
<clipPath id="clip0_2281_32838">
<rect width="32" height="32" fill="white" transform="translate(32 0.705078) rotate(90)"/>
</clipPath>
</defs>
</svg>
