<svg width="14" height="12" viewBox="0 0 14 12" fill="none" xmlns="http://www.w3.org/2000/svg">
<path fill-rule="evenodd" clip-rule="evenodd" d="M1.98073 11.6694H12.0207C13.0474 11.6694 13.6874 10.5561 13.1741 9.66939L8.15407 0.996055C7.64073 0.109388 6.36073 0.109388 5.8474 0.996055L0.827398 9.66939C0.314065 10.5561 0.954065 11.6694 1.98073 11.6694ZM7.00073 7.00272C6.63407 7.00272 6.33407 6.70272 6.33407 6.33605V5.00272C6.33407 4.63606 6.63407 4.33605 7.00073 4.33605C7.3674 4.33605 7.6674 4.63606 7.6674 5.00272V6.33605C7.6674 6.70272 7.3674 7.00272 7.00073 7.00272ZM6.33407 9.66939H7.6674V8.33605H6.33407V9.66939Z" fill="#FF001F"/>
</svg>
