<?xml version="1.0" encoding="UTF-8"?><svg id="Content" xmlns="http://www.w3.org/2000/svg" viewBox="0 0 1013.53 493.22"><defs><style>.cls-1{fill:#2a1cf7;}</style></defs><g><path class="cls-1" d="M442.7,277.42c-26.5,0-36.4-10.84-36.4-29.41h16.69c0,11.26,5.63,14.81,20.24,14.81,10.74,0,14.29-2.5,14.29-6.47,0-5.32-8.97-7.72-19.72-11.37-15.54-5.21-28.16-9.39-28.16-23.78,0-12.52,9.91-19.4,28.89-19.4,22.53,0,32.65,11.47,32.65,26.08h-16.69c0-8.97-6.88-11.47-15.96-11.47-7.51,0-12.2,1.66-12.2,5.42,0,3.33,1.77,4.59,13.56,8.55,13.56,4.59,34.32,10.43,34.32,25.76,0,12.62-8.87,21.27-31.5,21.27Z"/><path class="cls-1" d="M538.99,217.45h-23.99v58.94h-16.69v-58.94h-24.09v-14.61h64.78v14.61Z"/><path class="cls-1" d="M586.04,252.8h-29.83l-6.57,23.58h-16.9l21.17-73.54h34.42l21.28,73.54h-16.9l-6.68-23.58Zm-4.07-14.6l-8.76-31.19h-4.17l-8.76,31.19h21.7Z"/><path class="cls-1" d="M667.1,217.45h-23.99v58.94h-16.69v-58.94h-24.09v-14.61h64.78v14.61Z"/><path class="cls-1" d="M709.88,217.45v44.33h16.69v14.61h-50.07v-14.61h16.69v-44.33h-16.69v-14.61h50.07v14.61h-16.69Z"/><path class="cls-1" d="M768.31,201.8c23.26,0,37.45,16.38,37.45,37.76s-14.19,37.86-37.45,37.86-37.55-16.37-37.55-37.86,14.19-37.76,37.55-37.76Zm0,61.02c13.87,0,20.76-9.08,20.76-23.26s-6.88-23.15-20.76-23.15-20.86,9.07-20.86,23.15,6.99,23.26,20.86,23.26Z"/><path class="cls-1" d="M816.2,202.84h32.86l22.22,69.37h4.17l-3.13-10.43v-58.94h16.69v73.54h-32.86l-22.22-69.37h-4.17l3.13,10.43v58.94h-16.69v-73.54Z"/></g><g><polygon class="cls-1" points="321.57 213.39 189.75 213.39 124.52 260.43 124.52 184.16 176.73 146.15 321.57 146.15 321.57 213.39"/><polygon class="cls-1" points="124.52 279.83 256.34 279.83 321.57 232.79 321.57 309.07 269.36 347.07 124.52 347.07 124.52 279.83"/></g></svg>