<svg width="32" height="32" viewBox="0 0 32 32" fill="none" xmlns="http://www.w3.org/2000/svg">
<g clip-path="url(#clip0_1666_31034)">
<path d="M16 23C15.7033 23 15.4133 23.088 15.1666 23.2528C14.92 23.4176 14.7277 23.6519 14.6142 23.926C14.5006 24.2001 14.4709 24.5017 14.5288 24.7926C14.5867 25.0836 14.7296 25.3509 14.9393 25.5607C15.1491 25.7704 15.4164 25.9133 15.7074 25.9712C15.9983 26.0291 16.2999 25.9993 16.574 25.8858C16.8481 25.7723 17.0824 25.58 17.2472 25.3334C17.412 25.0867 17.5 24.7967 17.5 24.5C17.5 24.1022 17.342 23.7206 17.0607 23.4393C16.7794 23.158 16.3978 23 16 23Z" fill="black"/>
<path d="M17 12H15V21H17V12Z" fill="black"/>
<path d="M29 30H3.00001C2.8282 30 2.65929 29.9558 2.50957 29.8715C2.35984 29.7872 2.23435 29.6658 2.14519 29.519C2.05603 29.3721 2.00622 29.2047 2.00055 29.033C1.99487 28.8613 2.03354 28.691 2.11281 28.5386L15.1128 3.53861C15.1972 3.37625 15.3246 3.24017 15.4811 3.14519C15.6375 3.05022 15.817 3 16 3C16.183 3 16.3625 3.05022 16.519 3.14519C16.6754 3.24017 16.8028 3.37625 16.8872 3.53861L29.8872 28.5386C29.9665 28.691 30.0051 28.8613 29.9995 29.033C29.9938 29.2047 29.944 29.3721 29.8548 29.519C29.7657 29.6658 29.6402 29.7872 29.4904 29.8715C29.3407 29.9558 29.1718 30 29 30V30ZM4.65071 28H27.3493L27.3513 27.9967L16.002 6.17142H15.998L4.64871 27.9967L4.65071 28Z" fill="black"/>
</g>
<defs>
<clipPath id="clip0_1666_31034">
<rect width="32" height="32" fill="white"/>
</clipPath>
</defs>
</svg>
